<svg width="1284" height="1284" viewBox="0 0 1284 1284" fill="none" xmlns="http://www.w3.org/2000/svg">
<g opacity="0.7">
<path d="M687.042 526.378C1001 695.514 1111.48 1072.54 657.19 863.34C202.898 654.135 723.779 528.372 925.145 984.878" stroke="url(#paint0_linear_684_337)" stroke-width="4" stroke-linecap="round" stroke-dasharray="0.1 30" style="mix-blend-mode:screen"/>
<path d="M687.042 526.378C1001 695.514 1111.48 1072.54 657.19 863.34C202.898 654.135 723.779 528.372 925.145 984.878" stroke="url(#paint1_linear_684_337)" stroke-width="4" stroke-linecap="round" stroke-dasharray="0.1 30" style="mix-blend-mode:screen"/>
<path d="M655.582 518.66C1002.62 600.774 1206.92 936.364 713.959 851.867C221 767.369 691.583 511.078 1004.24 899.911" stroke="url(#paint2_linear_684_337)" stroke-width="4" stroke-linecap="round" stroke-dasharray="0.1 30" style="mix-blend-mode:screen"/>
<path d="M655.582 518.66C1002.62 600.774 1206.92 936.364 713.959 851.867C221 767.369 691.583 511.078 1004.24 899.911" stroke="url(#paint3_linear_684_337)" stroke-width="4" stroke-linecap="round" stroke-dasharray="0.1 30" style="mix-blend-mode:screen"/>
<path d="M623.197 519.347C979.665 508.842 1263.86 780.122 765.825 826.091C267.794 872.06 656.009 502.706 1058.65 797.368" stroke="url(#paint4_linear_684_337)" stroke-width="4" stroke-linecap="round" stroke-dasharray="0.1 30" style="mix-blend-mode:screen"/>
<path d="M623.197 519.347C979.665 508.842 1263.86 780.122 765.825 826.091C267.794 872.06 656.009 502.706 1058.65 797.368" stroke="url(#paint5_linear_684_337)" stroke-width="4" stroke-linecap="round" stroke-dasharray="0.1 30" style="mix-blend-mode:screen"/>
<path d="M592.092 528.393C933.695 425.986 1278.42 614.467 809.252 787.77C340.089 961.073 619.479 503.826 1084.66 684.238" stroke="url(#paint6_linear_684_337)" stroke-width="4" stroke-linecap="round" stroke-dasharray="0.1 30" style="mix-blend-mode:screen"/>
<path d="M592.092 528.393C933.695 425.986 1278.42 614.467 809.252 787.77C340.089 961.073 619.479 503.826 1084.66 684.238" stroke="url(#paint7_linear_684_337)" stroke-width="4" stroke-linecap="round" stroke-dasharray="0.1 30" style="mix-blend-mode:screen"/>
<path d="M564.39 545.181C867.847 357.85 1249.6 450.689 841.281 739.515C432.958 1028.34 584.485 514.364 1080.51 568.228" stroke="url(#paint8_linear_684_337)" stroke-width="4" stroke-linecap="round" stroke-dasharray="0.1 30" style="mix-blend-mode:screen"/>
<path d="M564.39 545.181C867.847 357.85 1249.6 450.689 841.281 739.515C432.958 1028.34 584.485 514.364 1080.51 568.228" stroke="url(#paint9_linear_684_337)" stroke-width="4" stroke-linecap="round" stroke-dasharray="0.1 30" style="mix-blend-mode:screen"/>
<path d="M541.975 568.567C786.608 309.079 1179.39 299.948 859.729 684.615C540.073 1069.28 553.41 533.599 1046.48 457.246" stroke="url(#paint10_linear_684_337)" stroke-width="4" stroke-linecap="round" stroke-dasharray="0.1 30" style="mix-blend-mode:screen"/>
<path d="M541.975 568.567C786.608 309.079 1179.39 299.948 859.729 684.615C540.073 1069.28 553.41 533.599 1046.48 457.246" stroke="url(#paint11_linear_684_337)" stroke-width="4" stroke-linecap="round" stroke-dasharray="0.1 30" style="mix-blend-mode:screen"/>
<path d="M526.378 596.958C695.515 282.995 1072.55 172.518 863.34 626.81C654.135 1081.1 528.372 560.221 984.878 358.855" stroke="url(#paint12_linear_684_337)" stroke-width="4" stroke-linecap="round" stroke-dasharray="0.1 30" style="mix-blend-mode:screen"/>
<path d="M526.378 596.958C695.515 282.995 1072.55 172.518 863.34 626.81C654.135 1081.1 528.372 560.221 984.878 358.855" stroke="url(#paint13_linear_684_337)" stroke-width="4" stroke-linecap="round" stroke-dasharray="0.1 30" style="mix-blend-mode:screen"/>
<path d="M518.66 628.418C600.774 281.378 936.364 77.0819 851.867 570.041C767.369 1063 511.078 592.417 899.911 279.76" stroke="url(#paint14_linear_684_337)" stroke-width="4" stroke-linecap="round" stroke-dasharray="0.1 30" style="mix-blend-mode:screen"/>
<path d="M518.66 628.418C600.774 281.378 936.364 77.0819 851.867 570.041C767.369 1063 511.078 592.417 899.911 279.76" stroke="url(#paint15_linear_684_337)" stroke-width="4" stroke-linecap="round" stroke-dasharray="0.1 30" style="mix-blend-mode:screen"/>
<path d="M519.347 660.804C508.843 304.336 780.122 20.144 826.091 518.175C872.06 1016.21 502.706 627.991 797.369 225.351" stroke="url(#paint16_linear_684_337)" stroke-width="4" stroke-linecap="round" stroke-dasharray="0.1 30" style="mix-blend-mode:screen"/>
<path d="M519.347 660.804C508.843 304.336 780.122 20.144 826.091 518.175C872.06 1016.21 502.706 627.991 797.369 225.351" stroke="url(#paint17_linear_684_337)" stroke-width="4" stroke-linecap="round" stroke-dasharray="0.1 30" style="mix-blend-mode:screen"/>
<path d="M528.393 691.908C425.986 350.305 614.467 5.58453 787.77 474.748C961.073 943.911 503.827 664.521 684.238 199.335" stroke="url(#paint18_linear_684_337)" stroke-width="4" stroke-linecap="round" stroke-dasharray="0.1 30" style="mix-blend-mode:screen"/>
<path d="M528.393 691.908C425.986 350.305 614.467 5.58453 787.77 474.748C961.073 943.911 503.827 664.521 684.238 199.335" stroke="url(#paint19_linear_684_337)" stroke-width="4" stroke-linecap="round" stroke-dasharray="0.1 30" style="mix-blend-mode:screen"/>
<path d="M545.181 719.611C357.85 416.153 450.689 34.3958 739.515 442.719C1028.34 851.042 514.364 699.515 568.228 203.487" stroke="url(#paint20_linear_684_337)" stroke-width="4" stroke-linecap="round" stroke-dasharray="0.1 30" style="mix-blend-mode:screen"/>
<path d="M545.181 719.611C357.85 416.153 450.689 34.3958 739.515 442.719C1028.34 851.042 514.364 699.515 568.228 203.487" stroke="url(#paint21_linear_684_337)" stroke-width="4" stroke-linecap="round" stroke-dasharray="0.1 30" style="mix-blend-mode:screen"/>
<path d="M568.567 742.025C309.079 497.392 299.948 104.615 684.615 424.271C1069.28 743.927 533.599 730.59 457.246 237.522" stroke="url(#paint22_linear_684_337)" stroke-width="4" stroke-linecap="round" stroke-dasharray="0.1 30" style="mix-blend-mode:screen"/>
<path d="M568.567 742.025C309.079 497.392 299.948 104.615 684.615 424.271C1069.28 743.927 533.599 730.59 457.246 237.522" stroke="url(#paint23_linear_684_337)" stroke-width="4" stroke-linecap="round" stroke-dasharray="0.1 30" style="mix-blend-mode:screen"/>
<path d="M596.958 757.622C282.995 588.485 172.518 211.455 626.81 420.66C1081.1 629.865 560.221 755.628 358.855 299.122" stroke="url(#paint24_linear_684_337)" stroke-width="4" stroke-linecap="round" stroke-dasharray="0.1 30" style="mix-blend-mode:screen"/>
<path d="M596.958 757.622C282.995 588.485 172.518 211.455 626.81 420.66C1081.1 629.865 560.221 755.628 358.855 299.122" stroke="url(#paint25_linear_684_337)" stroke-width="4" stroke-linecap="round" stroke-dasharray="0.1 30" style="mix-blend-mode:screen"/>
<path d="M628.418 765.34C281.378 683.226 77.0819 347.636 570.041 432.133C1063 516.63 592.417 772.922 279.76 384.088" stroke="url(#paint26_linear_684_337)" stroke-width="4" stroke-linecap="round" stroke-dasharray="0.1 30" style="mix-blend-mode:screen"/>
<path d="M628.418 765.34C281.378 683.226 77.0819 347.636 570.041 432.133C1063 516.63 592.417 772.922 279.76 384.088" stroke="url(#paint27_linear_684_337)" stroke-width="4" stroke-linecap="round" stroke-dasharray="0.1 30" style="mix-blend-mode:screen"/>
<path d="M660.803 764.653C304.336 775.157 20.1439 503.878 518.175 457.909C1016.21 411.94 627.991 781.294 225.35 486.631" stroke="url(#paint28_linear_684_337)" stroke-width="4" stroke-linecap="round" stroke-dasharray="0.1 30" style="mix-blend-mode:screen"/>
<path d="M660.803 764.653C304.336 775.157 20.1439 503.878 518.175 457.909C1016.21 411.94 627.991 781.294 225.35 486.631" stroke="url(#paint29_linear_684_337)" stroke-width="4" stroke-linecap="round" stroke-dasharray="0.1 30" style="mix-blend-mode:screen"/>
<path d="M691.908 755.606C350.305 858.014 5.58465 669.532 474.748 496.23C943.911 322.927 664.521 780.173 199.335 599.762" stroke="url(#paint30_linear_684_337)" stroke-width="4" stroke-linecap="round" stroke-dasharray="0.1 30" style="mix-blend-mode:screen"/>
<path d="M691.908 755.606C350.305 858.014 5.58465 669.532 474.748 496.23C943.911 322.927 664.521 780.173 199.335 599.762" stroke="url(#paint31_linear_684_337)" stroke-width="4" stroke-linecap="round" stroke-dasharray="0.1 30" style="mix-blend-mode:screen"/>
<path d="M719.61 738.818C416.153 926.149 34.3957 833.31 442.719 544.484C851.042 255.658 699.515 769.636 203.486 715.771" stroke="url(#paint32_linear_684_337)" stroke-width="4" stroke-linecap="round" stroke-dasharray="0.1 30" style="mix-blend-mode:screen"/>
<path d="M719.61 738.818C416.153 926.149 34.3957 833.31 442.719 544.484C851.042 255.658 699.515 769.636 203.486 715.771" stroke="url(#paint33_linear_684_337)" stroke-width="4" stroke-linecap="round" stroke-dasharray="0.1 30" style="mix-blend-mode:screen"/>
<path d="M742.025 715.432C497.392 974.921 104.615 984.051 424.271 599.385C743.927 214.719 730.59 750.401 237.522 826.753" stroke="url(#paint34_linear_684_337)" stroke-width="4" stroke-linecap="round" stroke-dasharray="0.1 30" style="mix-blend-mode:screen"/>
<path d="M742.025 715.432C497.392 974.921 104.615 984.051 424.271 599.385C743.927 214.719 730.59 750.401 237.522 826.753" stroke="url(#paint35_linear_684_337)" stroke-width="4" stroke-linecap="round" stroke-dasharray="0.1 30" style="mix-blend-mode:screen"/>
<path d="M757.622 687.042C588.486 1001 211.455 1111.48 420.66 657.19C629.865 202.898 755.628 723.778 299.122 925.144" stroke="url(#paint36_linear_684_337)" stroke-width="4" stroke-linecap="round" stroke-dasharray="0.1 30" style="mix-blend-mode:screen"/>
<path d="M757.622 687.042C588.486 1001 211.455 1111.48 420.66 657.19C629.865 202.898 755.628 723.778 299.122 925.144" stroke="url(#paint37_linear_684_337)" stroke-width="4" stroke-linecap="round" stroke-dasharray="0.1 30" style="mix-blend-mode:screen"/>
<path d="M765.34 655.582C683.226 1002.62 347.636 1206.92 432.133 713.959C516.63 221 772.922 691.583 384.088 1004.24" stroke="url(#paint38_linear_684_337)" stroke-width="4" stroke-linecap="round" stroke-dasharray="0.1 30" style="mix-blend-mode:screen"/>
<path d="M765.34 655.582C683.226 1002.62 347.636 1206.92 432.133 713.959C516.63 221 772.922 691.583 384.088 1004.24" stroke="url(#paint39_linear_684_337)" stroke-width="4" stroke-linecap="round" stroke-dasharray="0.1 30" style="mix-blend-mode:screen"/>
<path d="M764.653 623.196C775.157 979.664 503.878 1263.86 457.909 765.825C411.94 267.794 781.294 656.008 486.631 1058.65" stroke="url(#paint40_linear_684_337)" stroke-width="4" stroke-linecap="round" stroke-dasharray="0.1 30" style="mix-blend-mode:screen"/>
<path d="M764.653 623.196C775.157 979.664 503.878 1263.86 457.909 765.825C411.94 267.794 781.294 656.008 486.631 1058.65" stroke="url(#paint41_linear_684_337)" stroke-width="4" stroke-linecap="round" stroke-dasharray="0.1 30" style="mix-blend-mode:screen"/>
<path d="M755.607 592.092C858.014 933.695 669.533 1278.42 496.23 809.252C322.927 340.089 780.173 619.479 599.762 1084.66" stroke="url(#paint42_linear_684_337)" stroke-width="4" stroke-linecap="round" stroke-dasharray="0.1 30" style="mix-blend-mode:screen"/>
<path d="M755.607 592.092C858.014 933.695 669.533 1278.42 496.23 809.252C322.927 340.089 780.173 619.479 599.762 1084.66" stroke="url(#paint43_linear_684_337)" stroke-width="4" stroke-linecap="round" stroke-dasharray="0.1 30" style="mix-blend-mode:screen"/>
<path d="M738.819 564.389C926.15 867.847 833.311 1249.6 544.485 841.281C255.659 432.958 769.637 584.485 715.772 1080.51" stroke="url(#paint44_linear_684_337)" stroke-width="4" stroke-linecap="round" stroke-dasharray="0.1 30" style="mix-blend-mode:screen"/>
<path d="M738.819 564.389C926.15 867.847 833.311 1249.6 544.485 841.281C255.659 432.958 769.637 584.485 715.772 1080.51" stroke="url(#paint45_linear_684_337)" stroke-width="4" stroke-linecap="round" stroke-dasharray="0.1 30" style="mix-blend-mode:screen"/>
<path d="M715.432 541.975C974.921 786.608 984.052 1179.39 599.385 859.729C214.719 540.073 750.401 553.41 826.753 1046.48" stroke="url(#paint46_linear_684_337)" stroke-width="4" stroke-linecap="round" stroke-dasharray="0.1 30" style="mix-blend-mode:screen"/>
<path d="M715.432 541.975C974.921 786.608 984.052 1179.39 599.385 859.729C214.719 540.073 750.401 553.41 826.753 1046.48" stroke="url(#paint47_linear_684_337)" stroke-width="4" stroke-linecap="round" stroke-dasharray="0.1 30" style="mix-blend-mode:screen"/>
</g>
<defs>
<linearGradient id="paint0_linear_684_337" x1="490.759" y1="515.744" x2="896.785" y2="957.435" gradientUnits="userSpaceOnUse">
<stop stop-color="#9868FF" stop-opacity="0"/>
<stop offset="0.270833" stop-color="#2037FF"/>
<stop offset="0.734375" stop-color="#6880FF" stop-opacity="0"/>
<stop offset="0.848958" stop-color="#FF3131"/>
<stop offset="1" stop-color="#00FF66" stop-opacity="0.74"/>
</linearGradient>
<linearGradient id="paint1_linear_684_337" x1="490.759" y1="515.744" x2="896.785" y2="957.435" gradientUnits="userSpaceOnUse">
<stop stop-color="#9868FF" stop-opacity="0"/>
<stop offset="0.270833" stop-color="#2037FF"/>
<stop offset="0.734375" stop-color="#6880FF" stop-opacity="0"/>
<stop offset="0.848958" stop-color="#FF3131"/>
<stop offset="1" stop-color="#00FF66" stop-opacity="0.74"/>
</linearGradient>
<linearGradient id="paint2_linear_684_337" x1="463.234" y1="559.19" x2="969.744" y2="880.744" gradientUnits="userSpaceOnUse">
<stop stop-color="#9868FF" stop-opacity="0"/>
<stop offset="0.270833" stop-color="#2037FF"/>
<stop offset="0.734375" stop-color="#6880FF" stop-opacity="0"/>
<stop offset="0.848958" stop-color="#FF3131"/>
<stop offset="1" stop-color="#00FF66" stop-opacity="0.74"/>
</linearGradient>
<linearGradient id="paint3_linear_684_337" x1="463.234" y1="559.19" x2="969.744" y2="880.744" gradientUnits="userSpaceOnUse">
<stop stop-color="#9868FF" stop-opacity="0"/>
<stop offset="0.270833" stop-color="#2037FF"/>
<stop offset="0.734375" stop-color="#6880FF" stop-opacity="0"/>
<stop offset="0.848958" stop-color="#FF3131"/>
<stop offset="1" stop-color="#00FF66" stop-opacity="0.74"/>
</linearGradient>
<linearGradient id="paint4_linear_684_337" x1="447.893" y1="608.279" x2="1020.37" y2="787.782" gradientUnits="userSpaceOnUse">
<stop stop-color="#9868FF" stop-opacity="0"/>
<stop offset="0.270833" stop-color="#2037FF"/>
<stop offset="0.734375" stop-color="#6880FF" stop-opacity="0"/>
<stop offset="0.848958" stop-color="#FF3131"/>
<stop offset="1" stop-color="#00FF66" stop-opacity="0.74"/>
</linearGradient>
<linearGradient id="paint5_linear_684_337" x1="447.893" y1="608.279" x2="1020.37" y2="787.782" gradientUnits="userSpaceOnUse">
<stop stop-color="#9868FF" stop-opacity="0"/>
<stop offset="0.270833" stop-color="#2037FF"/>
<stop offset="0.734375" stop-color="#6880FF" stop-opacity="0"/>
<stop offset="0.848958" stop-color="#FF3131"/>
<stop offset="1" stop-color="#00FF66" stop-opacity="0.74"/>
</linearGradient>
<linearGradient id="paint6_linear_684_337" x1="445.78" y1="659.667" x2="1045.21" y2="684.886" gradientUnits="userSpaceOnUse">
<stop stop-color="#9868FF" stop-opacity="0"/>
<stop offset="0.270833" stop-color="#2037FF"/>
<stop offset="0.734375" stop-color="#6880FF" stop-opacity="0"/>
<stop offset="0.848958" stop-color="#FF3131"/>
<stop offset="1" stop-color="#00FF66" stop-opacity="0.74"/>
</linearGradient>
<linearGradient id="paint7_linear_684_337" x1="445.78" y1="659.667" x2="1045.21" y2="684.886" gradientUnits="userSpaceOnUse">
<stop stop-color="#9868FF" stop-opacity="0"/>
<stop offset="0.270833" stop-color="#2037FF"/>
<stop offset="0.734375" stop-color="#6880FF" stop-opacity="0"/>
<stop offset="0.848958" stop-color="#FF3131"/>
<stop offset="1" stop-color="#00FF66" stop-opacity="0.74"/>
</linearGradient>
<linearGradient id="paint8_linear_684_337" x1="457.039" y1="709.851" x2="1042.57" y2="579.067" gradientUnits="userSpaceOnUse">
<stop stop-color="#9868FF" stop-opacity="0"/>
<stop offset="0.270833" stop-color="#2037FF"/>
<stop offset="0.734375" stop-color="#6880FF" stop-opacity="0"/>
<stop offset="0.848958" stop-color="#FF3131"/>
<stop offset="1" stop-color="#00FF66" stop-opacity="0.74"/>
</linearGradient>
<linearGradient id="paint9_linear_684_337" x1="457.039" y1="709.851" x2="1042.57" y2="579.067" gradientUnits="userSpaceOnUse">
<stop stop-color="#9868FF" stop-opacity="0"/>
<stop offset="0.270833" stop-color="#2037FF"/>
<stop offset="0.734375" stop-color="#6880FF" stop-opacity="0"/>
<stop offset="0.848958" stop-color="#FF3131"/>
<stop offset="1" stop-color="#00FF66" stop-opacity="0.74"/>
</linearGradient>
<linearGradient id="paint10_linear_684_337" x1="480.902" y1="755.41" x2="1012.63" y2="477.537" gradientUnits="userSpaceOnUse">
<stop stop-color="#9868FF" stop-opacity="0"/>
<stop offset="0.270833" stop-color="#2037FF"/>
<stop offset="0.734375" stop-color="#6880FF" stop-opacity="0"/>
<stop offset="0.848958" stop-color="#FF3131"/>
<stop offset="1" stop-color="#00FF66" stop-opacity="0.74"/>
</linearGradient>
<linearGradient id="paint11_linear_684_337" x1="480.902" y1="755.41" x2="1012.63" y2="477.537" gradientUnits="userSpaceOnUse">
<stop stop-color="#9868FF" stop-opacity="0"/>
<stop offset="0.270833" stop-color="#2037FF"/>
<stop offset="0.734375" stop-color="#6880FF" stop-opacity="0"/>
<stop offset="0.848958" stop-color="#FF3131"/>
<stop offset="1" stop-color="#00FF66" stop-opacity="0.74"/>
</linearGradient>
<linearGradient id="paint12_linear_684_337" x1="515.744" y1="793.241" x2="957.436" y2="387.215" gradientUnits="userSpaceOnUse">
<stop stop-color="#9868FF" stop-opacity="0"/>
<stop offset="0.270833" stop-color="#2037FF"/>
<stop offset="0.734375" stop-color="#6880FF" stop-opacity="0"/>
<stop offset="0.848958" stop-color="#FF3131"/>
<stop offset="1" stop-color="#00FF66" stop-opacity="0.74"/>
</linearGradient>
<linearGradient id="paint13_linear_684_337" x1="515.744" y1="793.241" x2="957.436" y2="387.215" gradientUnits="userSpaceOnUse">
<stop stop-color="#9868FF" stop-opacity="0"/>
<stop offset="0.270833" stop-color="#2037FF"/>
<stop offset="0.734375" stop-color="#6880FF" stop-opacity="0"/>
<stop offset="0.848958" stop-color="#FF3131"/>
<stop offset="1" stop-color="#00FF66" stop-opacity="0.74"/>
</linearGradient>
<linearGradient id="paint14_linear_684_337" x1="559.19" y1="820.766" x2="880.744" y2="314.256" gradientUnits="userSpaceOnUse">
<stop stop-color="#9868FF" stop-opacity="0"/>
<stop offset="0.270833" stop-color="#2037FF"/>
<stop offset="0.734375" stop-color="#6880FF" stop-opacity="0"/>
<stop offset="0.848958" stop-color="#FF3131"/>
<stop offset="1" stop-color="#00FF66" stop-opacity="0.74"/>
</linearGradient>
<linearGradient id="paint15_linear_684_337" x1="559.19" y1="820.766" x2="880.744" y2="314.256" gradientUnits="userSpaceOnUse">
<stop stop-color="#9868FF" stop-opacity="0"/>
<stop offset="0.270833" stop-color="#2037FF"/>
<stop offset="0.734375" stop-color="#6880FF" stop-opacity="0"/>
<stop offset="0.848958" stop-color="#FF3131"/>
<stop offset="1" stop-color="#00FF66" stop-opacity="0.74"/>
</linearGradient>
<linearGradient id="paint16_linear_684_337" x1="608.28" y1="836.107" x2="787.783" y2="263.632" gradientUnits="userSpaceOnUse">
<stop stop-color="#9868FF" stop-opacity="0"/>
<stop offset="0.270833" stop-color="#2037FF"/>
<stop offset="0.734375" stop-color="#6880FF" stop-opacity="0"/>
<stop offset="0.848958" stop-color="#FF3131"/>
<stop offset="1" stop-color="#00FF66" stop-opacity="0.74"/>
</linearGradient>
<linearGradient id="paint17_linear_684_337" x1="608.28" y1="836.107" x2="787.783" y2="263.632" gradientUnits="userSpaceOnUse">
<stop stop-color="#9868FF" stop-opacity="0"/>
<stop offset="0.270833" stop-color="#2037FF"/>
<stop offset="0.734375" stop-color="#6880FF" stop-opacity="0"/>
<stop offset="0.848958" stop-color="#FF3131"/>
<stop offset="1" stop-color="#00FF66" stop-opacity="0.74"/>
</linearGradient>
<linearGradient id="paint18_linear_684_337" x1="659.667" y1="838.22" x2="684.886" y2="238.793" gradientUnits="userSpaceOnUse">
<stop stop-color="#9868FF" stop-opacity="0"/>
<stop offset="0.270833" stop-color="#2037FF"/>
<stop offset="0.734375" stop-color="#6880FF" stop-opacity="0"/>
<stop offset="0.848958" stop-color="#FF3131"/>
<stop offset="1" stop-color="#00FF66" stop-opacity="0.74"/>
</linearGradient>
<linearGradient id="paint19_linear_684_337" x1="659.667" y1="838.22" x2="684.886" y2="238.793" gradientUnits="userSpaceOnUse">
<stop stop-color="#9868FF" stop-opacity="0"/>
<stop offset="0.270833" stop-color="#2037FF"/>
<stop offset="0.734375" stop-color="#6880FF" stop-opacity="0"/>
<stop offset="0.848958" stop-color="#FF3131"/>
<stop offset="1" stop-color="#00FF66" stop-opacity="0.74"/>
</linearGradient>
<linearGradient id="paint20_linear_684_337" x1="709.851" y1="826.961" x2="579.067" y2="241.432" gradientUnits="userSpaceOnUse">
<stop stop-color="#9868FF" stop-opacity="0"/>
<stop offset="0.270833" stop-color="#2037FF"/>
<stop offset="0.734375" stop-color="#6880FF" stop-opacity="0"/>
<stop offset="0.848958" stop-color="#FF3131"/>
<stop offset="1" stop-color="#00FF66" stop-opacity="0.74"/>
</linearGradient>
<linearGradient id="paint21_linear_684_337" x1="709.851" y1="826.961" x2="579.067" y2="241.432" gradientUnits="userSpaceOnUse">
<stop stop-color="#9868FF" stop-opacity="0"/>
<stop offset="0.270833" stop-color="#2037FF"/>
<stop offset="0.734375" stop-color="#6880FF" stop-opacity="0"/>
<stop offset="0.848958" stop-color="#FF3131"/>
<stop offset="1" stop-color="#00FF66" stop-opacity="0.74"/>
</linearGradient>
<linearGradient id="paint22_linear_684_337" x1="755.41" y1="803.098" x2="477.537" y2="271.369" gradientUnits="userSpaceOnUse">
<stop stop-color="#9868FF" stop-opacity="0"/>
<stop offset="0.270833" stop-color="#2037FF"/>
<stop offset="0.734375" stop-color="#6880FF" stop-opacity="0"/>
<stop offset="0.848958" stop-color="#FF3131"/>
<stop offset="1" stop-color="#00FF66" stop-opacity="0.74"/>
</linearGradient>
<linearGradient id="paint23_linear_684_337" x1="755.41" y1="803.098" x2="477.537" y2="271.369" gradientUnits="userSpaceOnUse">
<stop stop-color="#9868FF" stop-opacity="0"/>
<stop offset="0.270833" stop-color="#2037FF"/>
<stop offset="0.734375" stop-color="#6880FF" stop-opacity="0"/>
<stop offset="0.848958" stop-color="#FF3131"/>
<stop offset="1" stop-color="#00FF66" stop-opacity="0.74"/>
</linearGradient>
<linearGradient id="paint24_linear_684_337" x1="793.241" y1="768.256" x2="387.215" y2="326.564" gradientUnits="userSpaceOnUse">
<stop stop-color="#9868FF" stop-opacity="0"/>
<stop offset="0.270833" stop-color="#2037FF"/>
<stop offset="0.734375" stop-color="#6880FF" stop-opacity="0"/>
<stop offset="0.848958" stop-color="#FF3131"/>
<stop offset="1" stop-color="#00FF66" stop-opacity="0.74"/>
</linearGradient>
<linearGradient id="paint25_linear_684_337" x1="793.241" y1="768.256" x2="387.215" y2="326.564" gradientUnits="userSpaceOnUse">
<stop stop-color="#9868FF" stop-opacity="0"/>
<stop offset="0.270833" stop-color="#2037FF"/>
<stop offset="0.734375" stop-color="#6880FF" stop-opacity="0"/>
<stop offset="0.848958" stop-color="#FF3131"/>
<stop offset="1" stop-color="#00FF66" stop-opacity="0.74"/>
</linearGradient>
<linearGradient id="paint26_linear_684_337" x1="820.766" y1="724.81" x2="314.256" y2="403.256" gradientUnits="userSpaceOnUse">
<stop stop-color="#9868FF" stop-opacity="0"/>
<stop offset="0.270833" stop-color="#2037FF"/>
<stop offset="0.734375" stop-color="#6880FF" stop-opacity="0"/>
<stop offset="0.848958" stop-color="#FF3131"/>
<stop offset="1" stop-color="#00FF66" stop-opacity="0.74"/>
</linearGradient>
<linearGradient id="paint27_linear_684_337" x1="820.766" y1="724.81" x2="314.256" y2="403.256" gradientUnits="userSpaceOnUse">
<stop stop-color="#9868FF" stop-opacity="0"/>
<stop offset="0.270833" stop-color="#2037FF"/>
<stop offset="0.734375" stop-color="#6880FF" stop-opacity="0"/>
<stop offset="0.848958" stop-color="#FF3131"/>
<stop offset="1" stop-color="#00FF66" stop-opacity="0.74"/>
</linearGradient>
<linearGradient id="paint28_linear_684_337" x1="836.107" y1="675.72" x2="263.631" y2="496.217" gradientUnits="userSpaceOnUse">
<stop stop-color="#9868FF" stop-opacity="0"/>
<stop offset="0.270833" stop-color="#2037FF"/>
<stop offset="0.734375" stop-color="#6880FF" stop-opacity="0"/>
<stop offset="0.848958" stop-color="#FF3131"/>
<stop offset="1" stop-color="#00FF66" stop-opacity="0.74"/>
</linearGradient>
<linearGradient id="paint29_linear_684_337" x1="836.107" y1="675.72" x2="263.631" y2="496.217" gradientUnits="userSpaceOnUse">
<stop stop-color="#9868FF" stop-opacity="0"/>
<stop offset="0.270833" stop-color="#2037FF"/>
<stop offset="0.734375" stop-color="#6880FF" stop-opacity="0"/>
<stop offset="0.848958" stop-color="#FF3131"/>
<stop offset="1" stop-color="#00FF66" stop-opacity="0.74"/>
</linearGradient>
<linearGradient id="paint30_linear_684_337" x1="838.22" y1="624.332" x2="238.793" y2="599.113" gradientUnits="userSpaceOnUse">
<stop stop-color="#9868FF" stop-opacity="0"/>
<stop offset="0.270833" stop-color="#2037FF"/>
<stop offset="0.734375" stop-color="#6880FF" stop-opacity="0"/>
<stop offset="0.848958" stop-color="#FF3131"/>
<stop offset="1" stop-color="#00FF66" stop-opacity="0.74"/>
</linearGradient>
<linearGradient id="paint31_linear_684_337" x1="838.22" y1="624.332" x2="238.793" y2="599.113" gradientUnits="userSpaceOnUse">
<stop stop-color="#9868FF" stop-opacity="0"/>
<stop offset="0.270833" stop-color="#2037FF"/>
<stop offset="0.734375" stop-color="#6880FF" stop-opacity="0"/>
<stop offset="0.848958" stop-color="#FF3131"/>
<stop offset="1" stop-color="#00FF66" stop-opacity="0.74"/>
</linearGradient>
<linearGradient id="paint32_linear_684_337" x1="826.961" y1="574.149" x2="241.432" y2="704.932" gradientUnits="userSpaceOnUse">
<stop stop-color="#9868FF" stop-opacity="0"/>
<stop offset="0.270833" stop-color="#2037FF"/>
<stop offset="0.734375" stop-color="#6880FF" stop-opacity="0"/>
<stop offset="0.848958" stop-color="#FF3131"/>
<stop offset="1" stop-color="#00FF66" stop-opacity="0.74"/>
</linearGradient>
<linearGradient id="paint33_linear_684_337" x1="826.961" y1="574.149" x2="241.432" y2="704.932" gradientUnits="userSpaceOnUse">
<stop stop-color="#9868FF" stop-opacity="0"/>
<stop offset="0.270833" stop-color="#2037FF"/>
<stop offset="0.734375" stop-color="#6880FF" stop-opacity="0"/>
<stop offset="0.848958" stop-color="#FF3131"/>
<stop offset="1" stop-color="#00FF66" stop-opacity="0.74"/>
</linearGradient>
<linearGradient id="paint34_linear_684_337" x1="803.098" y1="528.589" x2="271.369" y2="806.463" gradientUnits="userSpaceOnUse">
<stop stop-color="#9868FF" stop-opacity="0"/>
<stop offset="0.270833" stop-color="#2037FF"/>
<stop offset="0.734375" stop-color="#6880FF" stop-opacity="0"/>
<stop offset="0.848958" stop-color="#FF3131"/>
<stop offset="1" stop-color="#00FF66" stop-opacity="0.74"/>
</linearGradient>
<linearGradient id="paint35_linear_684_337" x1="803.098" y1="528.589" x2="271.369" y2="806.463" gradientUnits="userSpaceOnUse">
<stop stop-color="#9868FF" stop-opacity="0"/>
<stop offset="0.270833" stop-color="#2037FF"/>
<stop offset="0.734375" stop-color="#6880FF" stop-opacity="0"/>
<stop offset="0.848958" stop-color="#FF3131"/>
<stop offset="1" stop-color="#00FF66" stop-opacity="0.74"/>
</linearGradient>
<linearGradient id="paint36_linear_684_337" x1="768.256" y1="490.758" x2="326.564" y2="896.785" gradientUnits="userSpaceOnUse">
<stop stop-color="#9868FF" stop-opacity="0"/>
<stop offset="0.270833" stop-color="#2037FF"/>
<stop offset="0.734375" stop-color="#6880FF" stop-opacity="0"/>
<stop offset="0.848958" stop-color="#FF3131"/>
<stop offset="1" stop-color="#00FF66" stop-opacity="0.74"/>
</linearGradient>
<linearGradient id="paint37_linear_684_337" x1="768.256" y1="490.758" x2="326.564" y2="896.785" gradientUnits="userSpaceOnUse">
<stop stop-color="#9868FF" stop-opacity="0"/>
<stop offset="0.270833" stop-color="#2037FF"/>
<stop offset="0.734375" stop-color="#6880FF" stop-opacity="0"/>
<stop offset="0.848958" stop-color="#FF3131"/>
<stop offset="1" stop-color="#00FF66" stop-opacity="0.74"/>
</linearGradient>
<linearGradient id="paint38_linear_684_337" x1="724.81" y1="463.234" x2="403.256" y2="969.744" gradientUnits="userSpaceOnUse">
<stop stop-color="#9868FF" stop-opacity="0"/>
<stop offset="0.270833" stop-color="#2037FF"/>
<stop offset="0.734375" stop-color="#6880FF" stop-opacity="0"/>
<stop offset="0.848958" stop-color="#FF3131"/>
<stop offset="1" stop-color="#00FF66" stop-opacity="0.74"/>
</linearGradient>
<linearGradient id="paint39_linear_684_337" x1="724.81" y1="463.234" x2="403.256" y2="969.744" gradientUnits="userSpaceOnUse">
<stop stop-color="#9868FF" stop-opacity="0"/>
<stop offset="0.270833" stop-color="#2037FF"/>
<stop offset="0.734375" stop-color="#6880FF" stop-opacity="0"/>
<stop offset="0.848958" stop-color="#FF3131"/>
<stop offset="1" stop-color="#00FF66" stop-opacity="0.74"/>
</linearGradient>
<linearGradient id="paint40_linear_684_337" x1="675.72" y1="447.893" x2="496.217" y2="1020.37" gradientUnits="userSpaceOnUse">
<stop stop-color="#9868FF" stop-opacity="0"/>
<stop offset="0.270833" stop-color="#2037FF"/>
<stop offset="0.734375" stop-color="#6880FF" stop-opacity="0"/>
<stop offset="0.848958" stop-color="#FF3131"/>
<stop offset="1" stop-color="#00FF66" stop-opacity="0.74"/>
</linearGradient>
<linearGradient id="paint41_linear_684_337" x1="675.72" y1="447.893" x2="496.217" y2="1020.37" gradientUnits="userSpaceOnUse">
<stop stop-color="#9868FF" stop-opacity="0"/>
<stop offset="0.270833" stop-color="#2037FF"/>
<stop offset="0.734375" stop-color="#6880FF" stop-opacity="0"/>
<stop offset="0.848958" stop-color="#FF3131"/>
<stop offset="1" stop-color="#00FF66" stop-opacity="0.74"/>
</linearGradient>
<linearGradient id="paint42_linear_684_337" x1="624.333" y1="445.78" x2="599.114" y2="1045.21" gradientUnits="userSpaceOnUse">
<stop stop-color="#9868FF" stop-opacity="0"/>
<stop offset="0.270833" stop-color="#2037FF"/>
<stop offset="0.734375" stop-color="#6880FF" stop-opacity="0"/>
<stop offset="0.848958" stop-color="#FF3131"/>
<stop offset="1" stop-color="#00FF66" stop-opacity="0.74"/>
</linearGradient>
<linearGradient id="paint43_linear_684_337" x1="624.333" y1="445.78" x2="599.114" y2="1045.21" gradientUnits="userSpaceOnUse">
<stop stop-color="#9868FF" stop-opacity="0"/>
<stop offset="0.270833" stop-color="#2037FF"/>
<stop offset="0.734375" stop-color="#6880FF" stop-opacity="0"/>
<stop offset="0.848958" stop-color="#FF3131"/>
<stop offset="1" stop-color="#00FF66" stop-opacity="0.74"/>
</linearGradient>
<linearGradient id="paint44_linear_684_337" x1="574.149" y1="457.038" x2="704.933" y2="1042.57" gradientUnits="userSpaceOnUse">
<stop stop-color="#9868FF" stop-opacity="0"/>
<stop offset="0.270833" stop-color="#2037FF"/>
<stop offset="0.734375" stop-color="#6880FF" stop-opacity="0"/>
<stop offset="0.848958" stop-color="#FF3131"/>
<stop offset="1" stop-color="#00FF66" stop-opacity="0.74"/>
</linearGradient>
<linearGradient id="paint45_linear_684_337" x1="574.149" y1="457.038" x2="704.933" y2="1042.57" gradientUnits="userSpaceOnUse">
<stop stop-color="#9868FF" stop-opacity="0"/>
<stop offset="0.270833" stop-color="#2037FF"/>
<stop offset="0.734375" stop-color="#6880FF" stop-opacity="0"/>
<stop offset="0.848958" stop-color="#FF3131"/>
<stop offset="1" stop-color="#00FF66" stop-opacity="0.74"/>
</linearGradient>
<linearGradient id="paint46_linear_684_337" x1="528.589" y1="480.902" x2="806.463" y2="1012.63" gradientUnits="userSpaceOnUse">
<stop stop-color="#9868FF" stop-opacity="0"/>
<stop offset="0.270833" stop-color="#2037FF"/>
<stop offset="0.734375" stop-color="#6880FF" stop-opacity="0"/>
<stop offset="0.848958" stop-color="#FF3131"/>
<stop offset="1" stop-color="#00FF66" stop-opacity="0.74"/>
</linearGradient>
<linearGradient id="paint47_linear_684_337" x1="528.589" y1="480.902" x2="806.463" y2="1012.63" gradientUnits="userSpaceOnUse">
<stop stop-color="#9868FF" stop-opacity="0"/>
<stop offset="0.270833" stop-color="#2037FF"/>
<stop offset="0.734375" stop-color="#6880FF" stop-opacity="0"/>
<stop offset="0.848958" stop-color="#FF3131"/>
<stop offset="1" stop-color="#00FF66" stop-opacity="0.74"/>
</linearGradient>
</defs>
</svg>
